<svg width="30" height="30" viewBox="0 0 30 30" fill="none" xmlns="http://www.w3.org/2000/svg">
<g clip-path="url(#clip0_30_7)">
<path fill-rule="evenodd" clip-rule="evenodd" d="M26.25 16.875H16.875V26.25C16.875 27.2812 16.035 28.125 15 28.125C13.965 28.125 13.125 27.2812 13.125 26.25V16.875H3.75C2.715 16.875 1.875 16.0312 1.875 15C1.875 13.9688 2.715 13.125 3.75 13.125H13.125V3.75C13.125 2.71875 13.965 1.875 15 1.875C16.035 1.875 16.875 2.71875 16.875 3.75V13.125H26.25C27.285 13.125 28.125 13.9688 28.125 15C28.125 16.0312 27.285 16.875 26.25 16.875ZM26.25 11.25H18.75V3.75C18.75 1.67812 17.0709 0 15 0C12.9291 0 11.25 1.67812 11.25 3.75V11.25H3.75C1.67906 11.25 0 12.9281 0 15C0 17.0719 1.67906 18.75 3.75 18.75H11.25V26.25C11.25 28.3219 12.9291 30 15 30C17.0709 30 18.75 28.3219 18.75 26.25V18.75H26.25C28.3209 18.75 30 17.0719 30 15C30 12.9281 28.3209 11.25 26.25 11.25Z" fill="#3C3855"/>
</g>
<defs>
<clipPath id="clip0_30_7">
<rect width="30" height="30" fill="white"/>
</clipPath>
</defs>
</svg>
