<svg width="30" height="30" viewBox="0 0 28 17" fill="none" xmlns="http://www.w3.org/2000/svg">
<path d="M3.004 16.048C2.604 15.904 2.172 15.752 1.708 15.592C1.26 15.416 0.876 15.248 0.556 15.088C0.236 14.928 0.076 14.816 0.076 14.752C0.076 14.688 0.132 14.416 0.244 13.936C0.372 13.44 0.532 12.816 0.724 12.064C0.932 11.296 1.148 10.464 1.372 9.568C1.612 8.672 1.852 7.784 2.092 6.904C2.332 6.008 2.556 5.192 2.764 4.456C2.972 3.704 3.14 3.104 3.268 2.656H2.02L0.94 1.048L1.084 0.663999H6.028L7.42 2.68C7.612 3.464 7.812 4.352 8.02 5.344C8.228 6.32 8.436 7.32 8.644 8.344C8.852 9.352 9.044 10.288 9.22 11.152C9.396 12.016 9.54 12.736 9.652 13.312C9.764 13.888 9.828 14.216 9.844 14.296C9.876 14.504 9.964 14.664 10.108 14.776C10.252 14.888 10.508 15.04 10.876 15.232L10.588 16C10.108 15.84 9.628 15.656 9.148 15.448C8.684 15.24 8.3 15.04 7.996 14.848C7.692 14.656 7.532 14.52 7.516 14.44C7.468 13.928 7.412 13.408 7.348 12.88C7.284 12.336 7.212 11.8 7.132 11.272C6.988 11.256 6.844 11.248 6.7 11.248C6.124 11.248 5.524 11.312 4.9 11.44C4.276 11.568 3.708 11.8 3.196 12.136C3.084 12.584 2.964 13.04 2.836 13.504C2.724 13.968 2.612 14.432 2.5 14.896L3.292 15.28L3.004 16.048ZM5.044 9.304C5.684 9.304 6.308 9.48 6.916 9.832C6.724 8.552 6.508 7.312 6.268 6.112C6.044 4.896 5.844 3.816 5.668 2.872C5.444 3.688 5.18 4.648 4.876 5.752C4.588 6.856 4.268 8.08 3.916 9.424C4.3 9.344 4.676 9.304 5.044 9.304ZM16.495 15.52C15.983 15.52 15.447 15.496 14.887 15.448C14.327 15.384 13.799 15.304 13.303 15.208C12.807 15.096 12.407 14.984 12.103 14.872C11.799 14.744 11.647 14.624 11.647 14.512C11.647 14.304 11.679 14 11.743 13.6C11.823 13.2 11.895 12.656 11.959 11.968C12.023 11.264 12.055 10.376 12.055 9.304V8.104C12.055 7 12.087 5.944 12.151 4.936C12.231 3.912 12.343 3.152 12.487 2.656H11.599L10.399 1.048L10.591 0.663999H13.639L15.007 2.512C14.831 3.008 14.695 3.728 14.599 4.672C14.519 5.6 14.479 6.704 14.479 7.984V9.52C14.479 10.432 14.455 11.208 14.407 11.848C14.375 12.472 14.335 12.984 14.287 13.384C14.575 13.416 14.911 13.432 15.295 13.432C15.727 13.432 16.151 13.424 16.567 13.408C16.999 13.376 17.463 13.328 17.959 13.264L18.991 15.112L18.703 15.52H16.495ZM24.6747 15.52C24.1627 15.52 23.6267 15.496 23.0667 15.448C22.5067 15.384 21.9787 15.304 21.4827 15.208C20.9867 15.096 20.5867 14.984 20.2827 14.872C19.9787 14.744 19.8267 14.624 19.8267 14.512C19.8267 14.304 19.8587 14 19.9227 13.6C20.0027 13.2 20.0747 12.656 20.1387 11.968C20.2027 11.264 20.2347 10.376 20.2347 9.304V8.104C20.2347 7 20.2667 5.944 20.3307 4.936C20.4107 3.912 20.5227 3.152 20.6667 2.656H19.7787L18.5787 1.048L18.7707 0.663999H21.8187L23.1867 2.512C23.0107 3.008 22.8747 3.728 22.7787 4.672C22.6987 5.6 22.6587 6.704 22.6587 7.984V9.52C22.6587 10.432 22.6347 11.208 22.5867 11.848C22.5547 12.472 22.5147 12.984 22.4667 13.384C22.7547 13.416 23.0907 13.432 23.4747 13.432C23.9067 13.432 24.3307 13.424 24.7467 13.408C25.1787 13.376 25.6427 13.328 26.1387 13.264L27.1707 15.112L26.8827 15.52H24.6747Z" fill="#6E6A86"/>
</svg>
