<svg width="30" height="30" viewBox="0 0 30 30" fill="none" xmlns="http://www.w3.org/2000/svg">
<path d="M13.2516 3.75H16.9687V20.7834C15.382 21.1091 13.767 21.2771 12.1472 21.285C7.6078 21.2803 5.2453 19.2525 5.2453 15.3581C5.2453 11.6081 7.75124 9.17062 11.6353 9.17062C12.18 9.16 12.7237 9.22307 13.2516 9.35813V3.75ZM13.2516 12.3206C12.8474 12.1873 12.4235 12.1239 11.9981 12.1331C10.1231 12.1331 9.0328 13.2797 9.0328 15.2887C9.0328 17.2453 10.0706 18.3253 11.9747 18.3253C12.402 18.3252 12.8288 18.2939 13.2516 18.2316V12.3253V12.3206Z" fill="#44B78B"/>
<path d="M22.875 9.4303V17.9615C22.875 20.8987 22.6547 22.3106 22.0097 23.5284C21.3514 24.7667 20.275 25.7311 18.9722 26.25L15.524 24.6253C16.7767 24.1963 17.8259 23.3182 18.4687 22.1606C18.9994 21.1097 19.1672 19.8919 19.1672 16.6884V9.4303H22.875Z" fill="#44B78B"/>
<path d="M22.8797 3.76874H19.1635V7.54499H22.8797V3.76874Z" fill="#44B78B"/>
</svg>
